<?xml version="1.0" encoding="UTF-8"?>
<svg version="1.1" xmlns="http://www.w3.org/2000/svg" width="1024" height="1024">
<path d="M0 0 C337.92 0 675.84 0 1024 0 C1024 337.92 1024 675.84 1024 1024 C686.08 1024 348.16 1024 0 1024 C0 686.08 0 348.16 0 0 Z " fill="#FDFDFD" transform="translate(0,0)"/>
<path d="M0 0 C3.57307081 1.76249782 7.00123095 3.7358746 10.4375 5.75 C12.50897633 6.94294842 14.58059487 8.13564996 16.65234375 9.328125 C17.7079248 9.93978516 18.76350586 10.55144531 19.85107422 11.18164062 C24.71412088 13.98982573 29.60741811 16.74371075 34.5 19.5 C36.40772222 20.57782391 38.31527363 21.65595022 40.22265625 22.734375 C41.64408936 23.5377832 41.64408936 23.5377832 43.09423828 24.35742188 C46.0616855 26.03486978 49.02891283 27.7127061 51.99609375 29.390625 C53.97655113 30.51043677 55.95701979 31.63022861 57.9375 32.75 C58.90792236 33.29873779 59.87834473 33.84747559 60.87817383 34.4128418 C65.53708991 37.04634997 70.19872753 39.6747646 74.86694336 42.29174805 C83.51885724 47.14271384 92.12562202 52.07195421 100.73287964 57.0015564 C107.87810855 61.09260611 115.03631424 65.15545783 122.25 69.125 C129.19374425 72.94730408 136.03912112 76.92582641 142.875 80.9375 C151.06296535 85.74141627 159.30378721 90.41799272 167.63891602 94.96118164 C174.45428359 98.68131294 181.19982466 102.51516152 187.93432617 106.37939453 C194.44147172 110.11267803 200.96592317 113.81406822 207.5 117.5 C218.35647295 123.62632453 229.18348502 129.80344314 240 136 C240 136.66 240 137.32 240 138 C238.92145752 138.46148437 237.84291504 138.92296875 236.73168945 139.3984375 C231.59158776 141.59809008 226.45197803 143.7988907 221.3125 146 C220.36973206 146.40371826 219.42696411 146.80743652 218.45562744 147.22338867 C205.8539004 152.62081515 193.26350967 158.04345391 180.68630981 163.49777222 C141.39728891 180.53423703 141.39728891 180.53423703 134 183 C133.67 163.2 133.34 143.4 133 123 C100.70827007 106.08528432 69.87833908 96.28204173 34 91 C33.11715332 90.86867676 32.23430664 90.73735352 31.32470703 90.60205078 C-27.93028193 82.27388064 -87.58921231 95.4153749 -140 123 C-140.33 142.47 -140.66 161.94 -141 182 C-146.10702515 181.14882914 -150.12608279 179.87997701 -154.7890625 177.8515625 C-155.54919647 177.52714172 -156.30933044 177.20272095 -157.09249878 176.86846924 C-159.60611734 175.79368498 -162.11553761 174.70944878 -164.625 173.625 C-166.39235449 172.86682875 -168.159937 172.10918881 -169.92773438 171.35205078 C-174.64307426 169.33017546 -179.35459961 167.29956297 -184.06506348 165.26635742 C-187.01896467 163.99181718 -189.9737009 162.71923271 -192.92871094 161.44726562 C-210.97344453 153.67950063 -229.00931479 145.89225948 -247 138 C-245.83315511 134.49946533 -244.80757115 134.12016109 -241.64892578 132.50341797 C-241.02228027 132.19291504 -240.39563477 131.88241211 -239.75 131.5625 C-238.36563575 130.85066602 -236.98291056 130.13563827 -235.6015625 129.41796875 C-234.85551758 129.03044434 -234.10947266 128.64291992 -233.34082031 128.24365234 C-229.21378418 126.05100298 -225.17331114 123.70888545 -221.125 121.375 C-213.3191078 116.88750634 -205.48528304 112.45404561 -197.625 108.0625 C-178.69046681 97.47895462 -159.8243623 86.77812127 -141 76 C-124.31776003 66.44837734 -107.62357792 56.91716696 -90.83203125 47.55859375 C-79.46715769 41.22248814 -68.17626383 34.78677486 -56.96264648 28.18652344 C-48.95115053 23.49654649 -40.81434535 19.070406 -32.61743164 14.71411133 C-25.42638015 10.86318852 -18.46963625 6.72480242 -11.70556641 2.16137695 C-7.4235928 -0.60709598 -5.05920472 -1.83857378 0 0 Z " fill="#11253A" transform="translate(515,215)"/>
<path d="M0 0 C1.1533786 0.00109772 2.3067572 0.00219543 3.49508667 0.00332642 C22.82973046 0.0559202 41.28003963 1.44267875 60.1875 5.5 C61.1465625 5.69754883 62.105625 5.89509766 63.09375 6.09863281 C68.8737014 7.3146909 74.53370963 8.79430656 80.1875 10.5 C81.59902344 10.92321533 81.59902344 10.92321533 83.0390625 11.35498047 C97.81960059 15.86409488 113.22574266 20.85882844 126.1875 29.5 C126.55664349 31.38591957 126.55664349 31.38591957 126.54826355 33.72671509 C126.55444954 35.05606834 126.55444954 35.05606834 126.5607605 36.41227722 C126.54997467 37.38691422 126.53918884 38.36155121 126.52807617 39.36572266 C126.52851425 40.39013962 126.52895233 41.41455658 126.52940369 42.47001648 C126.52730766 45.86822331 126.50393798 49.26594148 126.48046875 52.6640625 C126.4748757 55.01532725 126.47060423 57.3665955 126.46760559 59.71786499 C126.45613397 65.91578776 126.42664676 72.11350066 126.39349365 78.31134033 C126.36284271 84.6320105 126.3491109 90.95271448 126.33398438 97.2734375 C126.30177937 109.68238403 126.25055501 122.09117459 126.1875 134.5 C124.77214453 134.0350662 123.35738517 133.5683175 121.94287109 133.10083008 C120.76100723 132.7112487 120.76100723 132.7112487 119.55526733 132.313797 C117.3748269 131.56438389 115.23863764 130.75095114 113.1015625 129.88671875 C100.42088531 124.81741238 87.52263521 121.81227198 74.15722656 119.10498047 C71.75226627 118.61505186 69.35615885 118.10115054 66.9609375 117.56640625 C63.05150466 116.74448845 59.13900654 116.07584769 55.1875 115.5 C54.27613281 115.36464844 53.36476563 115.22929687 52.42578125 115.08984375 C34.71611956 112.59837043 17.11134075 112.20618596 -0.75 112.1875 C-1.81989166 112.18400543 -2.88978333 112.18051086 -3.99209595 112.1769104 C-24.52080814 112.13973318 -44.76826274 113.28057773 -64.9375 117.25 C-65.60918213 117.37938965 -66.28086426 117.5087793 -66.97290039 117.64208984 C-86.34483133 121.38297078 -104.52473091 127.18489236 -122.8125 134.5 C-122.8125 99.85 -122.8125 65.2 -122.8125 29.5 C-102.98440993 19.00277584 -102.98440993 19.00277584 -95.4375 16.25 C-94.56375732 15.92483398 -93.69001465 15.59966797 -92.78979492 15.26464844 C-83.94628239 12.05288498 -74.96166316 9.65711977 -65.8125 7.5 C-64.34111607 7.13814183 -62.86976155 6.77616406 -61.3984375 6.4140625 C-41.05279085 1.53316999 -20.88845343 -0.08229658 0 0 Z " fill="#11253B" transform="translate(509.8125,315.5)"/>
<path d="M0 0 C4.24335114 1.41445038 7.65812488 2.72179804 11.546875 4.75 C12.55621094 5.2759375 13.56554687 5.801875 14.60546875 6.34375 C15.64316406 6.8903125 16.68085938 7.436875 17.75 8 C18.80316406 8.5465625 19.85632813 9.093125 20.94140625 9.65625 C28.74157682 13.74157682 28.74157682 13.74157682 31 16 C31.19375366 19.05865583 31.26029684 22.0265056 31.24050903 25.08609009 C31.24221788 26.03926664 31.24392673 26.99244319 31.24568737 27.97450387 C31.24899793 31.18831846 31.23795284 34.40192711 31.22705078 37.61572266 C31.22648701 39.91155492 31.22680257 42.20738755 31.22793579 44.5032196 C31.22851162 50.75293318 31.21672018 57.00257059 31.20278788 63.25226641 C31.19031874 69.77725372 31.18911304 76.30224261 31.18673706 82.82723999 C31.18121923 93.78458012 31.16871126 104.741892 31.15087891 115.69921875 C31.1325284 126.98665222 31.11836784 138.27407807 31.10986328 149.56152344 C31.10933783 150.25696796 31.10881239 150.95241248 31.10827102 151.66893108 C31.10566099 155.15767837 31.10313357 158.64642571 31.10064721 162.13517308 C31.07990472 191.09013396 31.04452208 220.04506631 31 249 C31.76977173 249.30058823 32.53954346 249.60117645 33.3326416 249.91087341 C36.24345851 251.09940814 38.86606371 252.53398679 41.59375 254.09765625 C43.24129272 255.03992065 43.24129272 255.03992065 44.92211914 256.0012207 C46.11484027 256.68815031 47.30746461 257.37524799 48.5 258.0625 C49.74399043 258.77640573 50.98805096 259.49018933 52.23217773 260.20385742 C64.24068199 267.10239651 76.18074618 274.11752967 88.11961365 281.13560486 C95.21698644 285.30566897 102.34133596 289.42851727 109.47216797 293.54101562 C112.3591183 295.20727168 115.24400843 296.87706793 118.12890625 298.546875 C128.74486678 304.68692131 139.37613117 310.79570709 150.0625 316.8125 C157.29466475 320.88449922 164.48463152 325.01556526 171.62426758 329.24755859 C178.3597773 333.2331346 185.15683653 337.10913985 191.95947266 340.97875977 C192.80300293 341.45885498 193.6465332 341.9389502 194.515625 342.43359375 C195.69801758 343.10430908 195.69801758 343.10430908 196.90429688 343.78857422 C198.60020078 344.76889518 200.26626227 345.80072467 201.921875 346.84765625 C204.04123295 348.24247245 204.04123295 348.24247245 207 348 C216.22519423 321.62986933 219.36219971 294.22683904 207.0546875 267.984375 C205.32345985 264.41932842 203.53267154 260.8885783 201.70703125 257.37109375 C200 254 200 254 199 251 C220.97049298 260.72464443 237.80247425 288.22623506 246.1953125 309.77001953 C248.34428172 315.72532439 249.73727527 321.80600291 251 328 C251.33644531 329.43085937 251.33644531 329.43085937 251.6796875 330.890625 C257.01906349 356.4903729 252.00034811 387.6990601 243 412 C239.52046925 410.68739967 236.37638667 409.15960266 233.17578125 407.26953125 C232.24330566 406.72176025 231.31083008 406.17398926 230.35009766 405.60961914 C229.34769043 405.01656982 228.3452832 404.42352051 227.3125 403.8125 C225.13966652 402.53587334 222.96647735 401.2598519 220.79296875 399.984375 C219.67067871 399.32501953 218.54838867 398.66566406 217.39208984 397.98632812 C211.98434111 394.81967751 206.55536491 391.69015955 201.125 388.5625 C200.04790771 387.94165527 198.97081543 387.32081055 197.86108398 386.68115234 C194.57436608 384.78689609 191.2872473 382.89333739 188 381 C174.32360139 373.1228814 160.65722817 365.23023119 147.03198242 357.26489258 C139.76766008 353.02147179 132.4806226 348.81868228 125.1875 344.625 C116.29098852 339.50721435 107.44347065 334.31352461 98.625 329.0625 C88.8895012 323.26637084 79.09110108 317.59672541 69.24029541 312.00027466 C60.60449846 307.09157682 52.03310012 302.08602374 43.5 297 C33.86568795 291.25818091 24.17889768 285.62020518 14.4375 280.0625 C13.82165039 279.71098877 13.20580078 279.35947754 12.57128906 278.99731445 C6.34798773 275.38325817 6.34798773 275.38325817 0 272 C0 182.24 0 92.48 0 0 Z " fill="#154164" transform="translate(265,369)"/>
<path d="M0 0 C0.99 0 1.98 0 3 0 C3 89.76 3 179.52 3 272 C-4.59 276.29 -12.18 280.58 -20 285 C-24.90426462 287.869903 -29.80314421 290.74556979 -34.69287109 293.63964844 C-39.20164288 296.29815387 -43.72717755 298.92799648 -48.25 301.5625 C-57.23647645 306.80006102 -66.21500922 312.05102936 -75.1875 317.3125 C-75.79173798 317.66681091 -76.39597595 318.02112183 -77.01852417 318.38616943 C-81.34590044 320.9237419 -85.6729843 323.46181276 -90 326 C-117.69687014 342.24672688 -117.69687014 342.24672688 -131.3125 350.1875 C-132.28429199 350.75436523 -133.25608398 351.32123047 -134.25732422 351.90527344 C-139.15085816 354.75881286 -144.04659137 357.60849937 -148.9453125 360.453125 C-150.9427955 361.61443341 -152.94019147 362.77589155 -154.9375 363.9375 C-155.90937256 364.50178711 -156.88124512 365.06607422 -157.88256836 365.64746094 C-163.28664263 368.79601833 -168.656779 371.99330969 -173.99609375 375.25 C-175.15697173 375.95582814 -176.31786028 376.66163887 -177.47875977 377.36743164 C-179.70884862 378.72671015 -181.93475558 380.09287827 -184.15600586 381.46655273 C-185.1538208 382.07442627 -186.15163574 382.6822998 -187.1796875 383.30859375 C-188.50589111 384.12541626 -188.50589111 384.12541626 -189.85888672 384.95874023 C-190.91873779 385.47416382 -190.91873779 385.47416382 -192 386 C-192.66 385.67 -193.32 385.34 -194 385 C-193.55269531 384.09121094 -193.10539063 383.18242188 -192.64453125 382.24609375 C-187.63567461 371.90863664 -183.02622952 361.44097393 -181.12109375 350.04296875 C-180.97309326 349.19573242 -180.82509277 348.34849609 -180.67260742 347.47558594 C-180.3985203 345.82947978 -180.15823253 344.1772507 -179.95825195 342.52050781 C-179.39736793 339.1184598 -178.8395416 336.80929332 -176.31274414 334.37353516 C-173.94464983 332.75187889 -171.52163454 331.37115849 -169 330 C-168.01918457 329.42757568 -167.03836914 328.85515137 -166.02783203 328.26538086 C-163.27317495 326.65895463 -160.50587767 325.07804145 -157.72869873 323.51095581 C-154.6183762 321.75548414 -151.51461816 319.98846474 -148.41015625 318.22265625 C-147.46819397 317.68736046 -147.46819397 317.68736046 -146.50720215 317.14125061 C-140.60441562 313.78333476 -134.73549626 310.36865785 -128.875 306.9375 C-120.4555035 302.01004496 -112.01652338 297.11798671 -103.5625 292.25 C-95.26453102 287.46952344 -86.98418629 282.66261336 -78.73828125 277.79296875 C-74.8451883 275.49476277 -70.9447774 273.20914689 -67.04296875 270.92578125 C-65.77685424 270.18465379 -64.51074098 269.4435242 -63.24462891 268.70239258 C-61.31579393 267.5733578 -59.38688443 266.4444516 -57.45770264 265.31600952 C-49.07589884 260.41231327 -40.72604921 255.46342262 -32.45703125 250.37109375 C-30 249 -30 249 -28 249 C-28 171.78 -28 94.56 -28 15 C-19.09 10.38 -10.18 5.76 -1 1 C-0.67 0.67 -0.34 0.34 0 0 Z " fill="#52B7E6" transform="translate(755,369)"/>
<path d="M0 0 C3.80515674 1.52206269 7.10468548 3.0744605 10.65625 5.0546875 C11.7503418 5.66328613 12.84443359 6.27188477 13.97167969 6.89892578 C15.14786967 7.55746858 16.32397444 8.21616361 17.5 8.875 C18.7203067 9.5559539 19.94068513 10.23677927 21.16113281 10.91748047 C30.08584145 15.90154073 38.96988719 20.95540297 47.8359375 26.04296875 C56.23347787 30.85925244 64.67082329 35.60545122 73.1015625 40.36328125 C75.96455586 41.97998505 78.82625499 43.59895427 81.6875 45.21875 C90.50943803 50.21185618 99.33761608 55.19256719 108.18969727 60.13208008 C119.10088817 66.22190823 129.94863481 72.41170639 140.76098633 78.67529297 C146.8099719 82.17476647 152.87817261 85.62966709 159 89 C166.24355126 92.98789082 173.4077122 97.10515379 180.5625 101.25 C190.29592235 106.88746051 200.07685737 112.43092006 209.90039062 117.90966797 C219.976028 123.53249248 229.99473618 129.25307602 240 135 C240 135.66 240 136.32 240 137 C238.92145752 137.46148437 237.84291504 137.92296875 236.73168945 138.3984375 C231.59158776 140.59809008 226.45197803 142.7988907 221.3125 145 C220.36973206 145.40371826 219.42696411 145.80743652 218.45562744 146.22338867 C205.8539004 151.62081515 193.26350967 157.04345391 180.68630981 162.49777222 C141.39728891 179.53423703 141.39728891 179.53423703 134 182 C133.67 162.2 133.34 142.4 133 122 C94.6614855 101.91792098 56.1388579 91.12803407 13 88 C13 87.67 13 87.34 13 87 C8.71 86.67 4.42 86.34 0 86 C0 57.62 0 29.24 0 0 Z " fill="#223B53" transform="translate(515,216)"/>
<path d="M0 0 C25.63025775 0 25.63025775 0 38.625 2.1875 C40.05587744 2.41775307 41.4867862 2.64781163 42.91772461 2.87768555 C53.77938974 4.65678129 64.45693197 6.81925916 75 10 C75.94101562 10.28214355 76.88203125 10.56428711 77.8515625 10.85498047 C92.63210059 15.36409488 108.03824266 20.35882844 121 29 C121.36914349 30.88591957 121.36914349 30.88591957 121.36076355 33.22671509 C121.36694954 34.55606834 121.36694954 34.55606834 121.3732605 35.91227722 C121.36247467 36.88691422 121.35168884 37.86155121 121.34057617 38.86572266 C121.34101425 39.89013962 121.34145233 40.91455658 121.34190369 41.97001648 C121.33980766 45.36822331 121.31643798 48.76594148 121.29296875 52.1640625 C121.2873757 54.51532725 121.28310423 56.8665955 121.28010559 59.21786499 C121.26863397 65.41578776 121.23914676 71.61350066 121.20599365 77.81134033 C121.17534271 84.1320105 121.1616109 90.45271448 121.14648438 96.7734375 C121.11427937 109.18238403 121.06305501 121.59117459 121 134 C119.58464453 133.5350662 118.16988517 133.0683175 116.75537109 132.60083008 C115.57350723 132.2112487 115.57350723 132.2112487 114.36776733 131.813797 C112.1873269 131.06438389 110.05113764 130.25095114 107.9140625 129.38671875 C95.23338531 124.31741238 82.33513521 121.31227198 68.96972656 118.60498047 C66.56476627 118.11505186 64.16865885 117.60115054 61.7734375 117.06640625 C35.94815388 111.63690762 9.27914266 111.39763625 -17 111 C-17 110.67 -17 110.34 -17 110 C-11.39 110 -5.78 110 0 110 C0 73.7 0 37.4 0 0 Z " fill="#203A52" transform="translate(515,316)"/>
<path d="M0 0 C0.66 0 1.32 0 2 0 C2.4846875 1.01578125 2.969375 2.0315625 3.46875 3.078125 C16.0746335 29.12562363 35.76834561 51.55155257 58 70 C58.91136719 70.76570312 59.82273437 71.53140625 60.76171875 72.3203125 C68.34580101 78.6711317 76.00094544 84.93507534 83.67578125 91.17578125 C119.4096321 120.290337 157.11258737 153.13858766 165 201 C165.40995566 205.88453603 165.47777072 210.72507584 165.4375 215.625 C165.42614014 217.58505981 165.42614014 217.58505981 165.41455078 219.5847168 C165.12436708 236.78922146 161.2780771 252.07260439 155 268 C154.68417969 268.82242187 154.36835937 269.64484375 154.04296875 270.4921875 C149.82502227 280.70000319 142.16213933 298.91893033 132 304 C132.11069824 303.45174561 132.22139648 302.90349121 132.33544922 302.33862305 C138.63209074 271.11422641 143.93192306 239.07162303 134 208 C133.62746094 206.80375 133.25492188 205.6075 132.87109375 204.375 C125.62745233 183.77983833 113.05699811 166.50632103 98 151 C97.48034668 150.45456543 96.96069336 149.90913086 96.42529297 149.34716797 C89.62934485 142.21634097 82.56822572 135.85503615 74.7421875 129.87890625 C61.45384079 119.72956707 48.82240718 108.82240718 37 97 C36.10023438 96.15824219 35.20046875 95.31648437 34.2734375 94.44921875 C16.52444964 77.70051749 0.24370758 51.56364384 -0.984375 26.51953125 C-0.98953125 25.68808594 -0.9946875 24.85664063 -1 24 C-1.02578125 22.80761719 -1.0515625 21.61523438 -1.078125 20.38671875 C-1.15984272 13.50200095 -0.95698044 6.81848564 0 0 Z " fill="#3193C8" transform="translate(396,470)"/>
<path d="M0 0 C0.66 0 1.32 0 2 0 C2.59022583 16.75878146 2.42397908 32.03241429 -3 48 C-3.32895264 49.00909424 -3.32895264 49.00909424 -3.66455078 50.03857422 C-8.54622752 64.69823119 -16.76702234 77.36189621 -27.48046875 88.3984375 C-29.59176527 90.5784739 -31.55714668 92.79728552 -33.5 95.125 C-40.12550269 102.74432809 -48.05001378 109.17582279 -55.89453125 115.4921875 C-58.30417497 117.43808846 -60.69336955 119.40216616 -63.07421875 121.3828125 C-64.50779213 122.56773298 -65.94138582 123.75262888 -67.375 124.9375 C-68.39243286 125.78985229 -68.39243286 125.78985229 -69.43041992 126.65942383 C-72.81342674 129.44061552 -75.74180445 131.6929477 -80 133 C-80.556875 132.31035156 -81.11375 131.62070312 -81.6875 130.91015625 C-88.9580634 121.95704692 -96.08994463 113.36975325 -105 106 C-102.32094265 103.14967871 -99.74061986 101.10163389 -96.375 99.125 C-88.55181838 94.26705657 -81.44739609 88.47030656 -74.234375 82.76293945 C-69.64369335 79.14085551 -65.02164452 75.55860318 -60.390625 71.98828125 C-35.70964689 52.6668586 -12.91335691 28.88514045 0 0 Z " fill="#52B6E6" transform="translate(626,469)"/>
<path d="M0 0 C0.80695312 0.55816406 1.61390625 1.11632812 2.4453125 1.69140625 C3.47011719 2.35849609 3.47011719 2.35849609 4.515625 3.0390625 C10.51037781 7.48971232 15.21480001 15.30833129 16.4453125 22.69140625 C17.30639038 35.22644168 16.44990137 46.87229943 8.06640625 56.94921875 C0.82834514 64.72795431 -6.32618198 68.69798358 -17.07373047 69.26586914 C-26.13593143 69.46026039 -32.97836938 68.00916897 -40.5546875 62.69140625 C-41.22757812 62.23121094 -41.90046875 61.77101563 -42.59375 61.296875 C-49.68591692 55.37632155 -53.81998604 44.83431648 -55.09765625 35.890625 C-55.37831429 23.66195347 -52.10596738 13.68496663 -43.703125 4.71484375 C-31.81861943 -6.41208377 -14.16492154 -8.50289858 0 0 Z " fill="#3297CC" transform="translate(530.5546875,468.30859375)"/>
<path d="M0 0 C21.97049298 9.72464443 38.80247425 37.22623506 47.1953125 58.77001953 C49.34428172 64.72532439 50.73727527 70.80600291 52 77 C52.33644531 78.43085937 52.33644531 78.43085937 52.6796875 79.890625 C58.01906349 105.4903729 53.00034811 136.6990601 44 161 C41.08482708 159.92598892 39.22189824 159.22189824 37 157 C35.90982023 154.63696169 34.87859506 152.27436072 33.875 149.875 C28.40242732 137.10373134 22.14205958 124.92174561 15 113 C14.28769677 111.75225795 13.57871206 110.50260746 12.875 109.25 C10.67634974 105.43900622 8.35494389 101.71579261 6 98 C6.99 97.505 6.99 97.505 8 97 C9.09722724 94.21518956 10.08050027 91.46858552 11 88.625 C11.2676416 87.79790527 11.5352832 86.97081055 11.81103516 86.11865234 C20.18266372 59.71105068 16.33161656 32.73549677 3.72973633 8.34155273 C3.39224365 7.69130127 3.05475098 7.0410498 2.70703125 6.37109375 C1 3 1 3 0 0 Z " fill="#196C9E" transform="translate(464,620)"/>
<path d="M0 0 C1.1127119 0.94596915 2.22431174 1.89324647 3.33544922 2.84106445 C3.95459198 3.36843704 4.57373474 3.89580963 5.2116394 4.43916321 C26.87447286 23.34594719 44.88721272 53.80972845 47.3034668 82.61816406 C47.43597903 86.29270591 47.46771798 89.94823881 47.4375 93.625 C47.42992676 94.93170654 47.42235352 96.23841309 47.41455078 97.5847168 C47.12436708 114.78922146 43.2780771 130.07260439 37 146 C36.68417969 146.82242188 36.36835937 147.64484375 36.04296875 148.4921875 C31.82502227 158.70000319 24.16213933 176.91893033 14 182 C14.11069824 181.45174561 14.22139648 180.90349121 14.33544922 180.33862305 C20.63209074 149.11422641 25.93192306 117.07162303 16 86 C15.62746094 84.80375 15.25492188 83.6075 14.87109375 82.375 C11.84270275 73.76466182 7.36274953 65.78648549 2.97387695 57.80834961 C2.65249756 57.21159424 2.33111816 56.61483887 2 56 C1.65459671 55.41052078 1.30919342 54.82104156 0.95332336 54.21369934 C-0.18511717 51.57014191 -0.24100216 49.64644594 -0.22705078 46.77246094 C-0.22689972 45.73168396 -0.22674866 44.69090698 -0.22659302 43.61859131 C-0.21627045 42.50179993 -0.20594788 41.38500854 -0.1953125 40.234375 C-0.1924826 39.08584045 -0.18965271 37.93730591 -0.18673706 36.75396729 C-0.17554263 33.08587219 -0.15043904 29.4180213 -0.125 25.75 C-0.11496926 23.26302436 -0.10584358 20.77604489 -0.09765625 18.2890625 C-0.07560568 12.19262502 -0.04213525 6.09632996 0 0 Z " fill="#50B5E4" transform="translate(514,592)"/>
<path d="M0 0 C9.41589775 0 17.49043888 3.71205994 24.46875 10.16015625 C32.71132963 20.063868 34.08942572 30.60370075 33 43 C30.9756639 53.17951869 26.02314929 61.15915158 17.98828125 67.6796875 C12.12196244 71.57519979 7.02559258 73 0 73 C0 48.91 0 24.82 0 0 Z " fill="#4CB3E3" transform="translate(514,464)"/>
<path d="M0 0 C0.66 0 1.32 0 2 0 C2.07476563 0.94359375 2.14953125 1.8871875 2.2265625 2.859375 C3.3291295 13.62561748 5.60356171 23.21635856 13.75 31 C21.542633 37.06585637 30.3995736 38.74633607 40 40 C40 40.33 40 40.66 40 41 C38.76636719 41.14695312 38.76636719 41.14695312 37.5078125 41.296875 C27.09126174 42.69216355 17.15867107 44.72735206 10 53 C4.39623598 61.30132064 2.66747214 69.1284383 2 79 C1.34 79 0.68 79 0 79 C-0.08636719 78.10539062 -0.17273438 77.21078125 -0.26171875 76.2890625 C-1.49605094 65.66701116 -3.90589632 56.85511385 -12.01171875 49.4609375 C-19.75450403 43.77173967 -29.76023076 42.62619939 -39 41 C-39 40.34 -39 39.68 -39 39 C-38.12859375 38.91363281 -37.2571875 38.82726562 -36.359375 38.73828125 C-26.45096039 37.56943147 -16.3747392 35.92201661 -9.0625 28.5625 C-2.86210434 20.54291735 -0.25342014 9.99857629 0 0 Z " fill="#55B8E7" transform="translate(656,187)"/>
<path d="M0 0 C2.0625 0.4375 2.0625 0.4375 4 1 C2.02 1.99 2.02 1.99 0 3 C0 36.33 0 69.66 0 104 C0.66 104.33 1.32 104.66 2 105 C0.515 105.495 0.515 105.495 -1 106 C-1.0231205 92.32697438 -1.04091359 78.65395336 -1.05181217 64.98091221 C-1.05704164 58.63269424 -1.06414044 52.2844896 -1.07543945 45.9362793 C-1.08626606 39.81551418 -1.09227635 33.69476191 -1.09487724 27.57398796 C-1.0967319 25.23309057 -1.10035329 22.89219391 -1.10573006 20.55130196 C-1.11293748 17.28491798 -1.11399107 14.01858785 -1.11352539 10.75219727 C-1.11712067 9.773965 -1.12071594 8.79573273 -1.12442017 7.78785706 C-1.1230455 6.90299622 -1.12167084 6.01813538 -1.12025452 5.10646057 C-1.12117631 4.33307626 -1.1220981 3.55969194 -1.12304783 2.76287174 C-1 1 -1 1 0 0 Z " fill="#2B3948" transform="translate(388,344)"/>
<path d="M0 0 C0.66 0 1.32 0 2 0 C2 9.24 2 18.48 2 28 C1.34 28.33 0.68 28.66 0 29 C-0.03758423 28.07719238 -0.03758423 28.07719238 -0.07592773 27.13574219 C-0.19218487 24.34029844 -0.31477642 21.54516702 -0.4375 18.75 C-0.47681641 17.78191406 -0.51613281 16.81382812 -0.55664062 15.81640625 C-0.59853516 14.88183594 -0.64042969 13.94726562 -0.68359375 12.984375 C-0.72025146 12.12553711 -0.75690918 11.26669922 -0.79467773 10.38183594 C-0.92958304 8.01196157 -0.92958304 8.01196157 -1.57836914 5.82910156 C-2.15641554 3.32144458 -1.29979174 2.14083345 0 0 Z " fill="#67BADE" transform="translate(626,469)"/>
<path d="M0 0 C0.66 0 1.32 0 2 0 C2 4.29 2 8.58 2 13 C1.01 13.33 0.02 13.66 -1 14 C-1 15.65 -1 17.3 -1 19 C-1.66 19 -2.32 19 -3 19 C-2.5359375 17.081875 -2.5359375 17.081875 -2.0625 15.125 C-0.93885167 10.11241278 -0.40577419 5.11489044 0 0 Z " fill="#6BBFE4" transform="translate(656,187)"/>
<path d="M0 0 C0 3 0 3 -1.75 5.04296875 C-2.4925 5.75066406 -3.235 6.45835937 -4 7.1875 C-4.7425 7.90292969 -5.485 8.61835938 -6.25 9.35546875 C-7.11625 10.16951172 -7.11625 10.16951172 -8 11 C-8.66 10.67 -9.32 10.34 -10 10 C-8.90033225 8.70450101 -7.79508199 7.41373929 -6.6875 6.125 C-6.07261719 5.40570313 -5.45773437 4.68640625 -4.82421875 3.9453125 C-3 2 -3 2 0 0 Z " fill="#4098C5" transform="translate(492,469)"/>
<path d="M0 0 C2.8203125 0.0234375 2.8203125 0.0234375 6.125 0.375 C7.22070312 0.48585937 8.31640625 0.59671875 9.4453125 0.7109375 C10.28835938 0.80632812 11.13140625 0.90171875 12 1 C12 1.33 12 1.66 12 2 C7.38 2.66 2.76 3.32 -2 4 C-2 2 -2 2 0 0 Z " fill="#5FB5DA" transform="translate(684,226)"/>
<path d="M0 0 C0.66 0.33 1.32 0.66 2 1 C-1.96 4.465 -1.96 4.465 -6 8 C-6.66 7.67 -7.32 7.34 -8 7 C-5.36 4.69 -2.72 2.38 0 0 Z " fill="#61B6DE" transform="translate(568,539)"/>
<path d="M0 0 C1.77706209 2.66559313 2.87548273 5.0280615 4 8 C2.02 7.34 0.04 6.68 -2 6 C-1.34 5.67 -0.68 5.34 0 5 C0 3.35 0 1.7 0 0 Z " fill="#1C5077" transform="translate(498,769)"/>
</svg>
